<svg width="680" height="680" viewBox="0 0 680 680" role="img" xmlns="http://www.w3.org/2000/svg">
  <title>Ideal Success Literary Logo</title>
  <desc>Square logo for Ideal Success Literary featuring an open book with a rising star, wordmark, and tagline on a dark background</desc>

  <rect width="680" height="680" fill="#0a0a0a" rx="24"/>
  <rect x="28" y="28" width="624" height="624" fill="none" stroke="#E85D04" stroke-width="1.5" rx="16"/>

  <g transform="translate(340, 220)">
    <path d="M-90,60 L-90,-55 Q-88,-70 -60,-72 L-4,-72 L-4,60 Z" fill="#1a1a1a" stroke="#E85D04" stroke-width="1.8" stroke-linejoin="round"/>
    <path d="M90,60 L90,-55 Q88,-70 60,-72 L4,-72 L4,60 Z" fill="#1a1a1a" stroke="#E85D04" stroke-width="1.8" stroke-linejoin="round"/>
    <line x1="0" y1="-72" x2="0" y2="60" stroke="#E85D04" stroke-width="2.5"/>
    <path d="M-90,60 Q0,75 90,60" fill="none" stroke="#E85D04" stroke-width="1.8"/>

    <line x1="-72" y1="-40" x2="-18" y2="-40" stroke="#E85D04" stroke-width="1" opacity="0.4"/>
    <line x1="-72" y1="-24" x2="-18" y2="-24" stroke="#E85D04" stroke-width="1" opacity="0.4"/>
    <line x1="-72" y1="-8" x2="-18" y2="-8" stroke="#E85D04" stroke-width="1" opacity="0.4"/>
    <line x1="-72" y1="8" x2="-18" y2="8" stroke="#E85D04" stroke-width="1" opacity="0.4"/>
    <line x1="-72" y1="24" x2="-18" y2="24" stroke="#E85D04" stroke-width="1" opacity="0.4"/>
    <line x1="-72" y1="40" x2="-44" y2="40" stroke="#E85D04" stroke-width="1" opacity="0.4"/>

    <line x1="18" y1="-40" x2="72" y2="-40" stroke="#E85D04" stroke-width="1" opacity="0.4"/>
    <line x1="18" y1="-24" x2="72" y2="-24" stroke="#E85D04" stroke-width="1" opacity="0.4"/>
    <line x1="18" y1="-8" x2="72" y2="-8" stroke="#E85D04" stroke-width="1" opacity="0.4"/>
    <line x1="18" y1="8" x2="72" y2="8" stroke="#E85D04" stroke-width="1" opacity="0.4"/>
    <line x1="18" y1="24" x2="72" y2="24" stroke="#E85D04" stroke-width="1" opacity="0.4"/>
    <line x1="18" y1="40" x2="50" y2="40" stroke="#E85D04" stroke-width="1" opacity="0.4"/>

    <polygon points="0,-88 5,-100 10,-88 22,-88 13,-80 17,-68 0,-78 -17,-68 -13,-80 -22,-88 -10,-88 -5,-100" fill="#E85D04"/>
    <line x1="0" y1="-108" x2="0" y2="-116" stroke="#E85D04" stroke-width="1.2" opacity="0.5"/>
    <line x1="18" y1="-103" x2="23" y2="-109" stroke="#E85D04" stroke-width="1.2" opacity="0.5"/>
    <line x1="-18" y1="-103" x2="-23" y2="-109" stroke="#E85D04" stroke-width="1.2" opacity="0.5"/>
    <line x1="26" y1="-88" x2="33" y2="-88" stroke="#E85D04" stroke-width="1.2" opacity="0.5"/>
    <line x1="-26" y1="-88" x2="-33" y2="-88" stroke="#E85D04" stroke-width="1.2" opacity="0.5"/>
  </g>

  <text x="340" y="378" font-family="Georgia, 'Times New Roman', serif" font-size="38" font-weight="700" fill="#FFFFFF" text-anchor="middle" letter-spacing="6">IDEAL SUCCESS</text>
  <text x="340" y="420" font-family="Georgia, 'Times New Roman', serif" font-size="38" font-weight="700" fill="#E85D04" text-anchor="middle" letter-spacing="6">LITERARY</text>

  <line x1="180" y1="445" x2="500" y2="445" stroke="#E85D04" stroke-width="1" opacity="0.6"/>

  <text x="340" y="472" font-family="Georgia, 'Times New Roman', serif" font-size="15" fill="#aaaaaa" text-anchor="middle" letter-spacing="3" font-style="italic">Author Visibility &amp; Publishing Strategy</text>
</svg>
