<?xml version="1.0" encoding="UTF-8"?>
<svg version="1.1" xmlns="http://www.w3.org/2000/svg" width="225" height="225">
<path d="M0 0 C1.25007169 -0.01169993 1.25007169 -0.01169993 2.52539736 -0.02363622 C5.30462421 -0.04350397 8.08247376 -0.02781248 10.86170959 -0.01205444 C12.85959673 -0.01883294 14.85747761 -0.02773737 16.85534668 -0.03860474 C22.27280806 -0.06137833 27.68979277 -0.05256916 33.10726237 -0.03670931 C38.78100402 -0.02403863 44.45470522 -0.03579384 50.12844849 -0.04364014 C59.65712297 -0.05273401 69.18560361 -0.04075634 78.71424866 -0.01693726 C89.72352325 0.01026558 100.73233473 0.00146472 111.74159807 -0.02606928 C121.20000031 -0.04877603 130.65826332 -0.05195249 140.11668402 -0.03887594 C145.76305673 -0.03108909 151.40921195 -0.03001876 157.0555706 -0.04655838 C162.36550707 -0.06102624 167.67484795 -0.05093863 172.98472023 -0.0220871 C174.93093757 -0.01548839 176.87720523 -0.01735312 178.8234024 -0.02840042 C181.48556014 -0.04211588 184.1458235 -0.02486854 186.80786133 0 C187.57353721 -0.01115361 188.33921309 -0.02230722 189.12809128 -0.03379881 C194.94583855 0.07123239 199.07244737 1.78920229 203.46742249 5.63491821 C207.51893461 10.34362638 208.0477316 15.02949525 207.98208618 21.05360413 C207.98903171 21.8747346 207.99597724 22.69586507 208.00313324 23.54187828 C208.02135576 26.27947082 208.01115236 29.0161921 208.00086975 31.7538147 C208.00793063 33.72214403 208.01667636 35.69046792 208.02697754 37.65878296 C208.04946225 42.99560138 208.04653387 48.3321231 208.03765607 53.66897082 C208.03254274 58.12726731 208.03984156 62.58550822 208.04712814 67.04379898 C208.06412426 77.5625842 208.06056415 88.08122433 208.0438385 98.6000061 C208.0269159 109.44567665 208.04275446 120.29094475 208.07506138 131.13657135 C208.10176532 140.45483737 208.10903113 149.77297817 208.1005463 159.09127861 C208.09561966 164.65382797 208.09781874 170.21613518 208.11833382 175.7786541 C208.13670347 181.00977932 208.13071617 186.24032606 208.10613441 191.47142029 C208.10113071 193.38861872 208.10460482 195.30586133 208.11728287 197.22302437 C208.13325165 199.84576069 208.11822771 202.4666009 208.09561157 205.08924866 C208.1074473 205.8432517 208.11928303 206.59725473 208.13147742 207.37410635 C208.03105345 213.12832869 206.37021313 217.35135002 202.46742249 221.63491821 C197.3574813 225.49741916 192.25047546 226.21760801 186.00440979 226.14285278 C185.190592 226.14909275 184.37677421 226.15533271 183.53829527 226.16176176 C180.83142707 226.17762253 178.12546806 226.16511501 175.41859436 226.15249634 C173.46982298 226.15792054 171.52105569 226.16504487 169.57229614 226.17373657 C164.29337275 226.19193732 159.01476284 226.18491573 153.73583412 226.17222023 C148.2049082 226.16207578 142.67400867 226.17148993 137.14308167 226.17776489 C127.85580133 226.18503707 118.56864832 226.17546481 109.28138733 226.15640259 C98.55218853 226.13463474 87.82329381 226.14168641 77.09410238 226.16370821 C67.87348377 226.18187439 58.65295657 226.18441455 49.43232584 226.17395353 C43.92907637 226.16772533 38.42596972 226.16686453 32.92272949 226.18009949 C27.74828329 226.19167502 22.5742282 226.18360093 17.39982414 226.16052246 C15.50359178 226.1552445 13.60732636 226.15673348 11.71110725 226.16557312 C9.11710924 226.17654847 6.52435456 226.16274171 3.93043518 226.14285278 C3.18489616 226.15177567 2.43935714 226.16069856 1.67122602 226.16989183 C-3.74953916 226.08959546 -8.15663798 224.9425063 -12.53257751 221.63491821 C-17.13248979 216.58771588 -18.26390343 211.7493442 -18.14730835 205.08924866 C-18.15299161 204.26655819 -18.15867486 203.44386773 -18.16453034 202.59624726 C-18.17737578 199.85918115 -18.15469498 197.12361096 -18.13194275 194.3866272 C-18.13380791 192.41653128 -18.13784693 190.44643641 -18.14389038 188.47634888 C-18.15385066 183.13954267 -18.13271821 177.80326906 -18.10541034 172.4665401 C-18.0815467 166.87644162 -18.08452502 161.2863531 -18.08410645 155.69621277 C-18.07948108 146.31053678 -18.05585683 136.92506389 -18.01963806 127.53945923 C-17.97789405 116.69329299 -17.9603223 105.84730955 -17.95701832 95.00106758 C-17.95341659 83.44539978 -17.93453977 71.88979761 -17.90989804 60.33415723 C-17.90367449 57.00773355 -17.90003499 53.68131487 -17.89686394 50.35488701 C-17.89095545 45.12553486 -17.87462019 39.8963128 -17.85025978 34.66701508 C-17.84283092 32.74940306 -17.83874857 30.83177468 -17.83827972 28.91414833 C-17.83701815 26.29383359 -17.8234426 23.67385951 -17.80673218 21.05360413 C-17.80914726 20.29737037 -17.81156235 19.54113661 -17.81405061 18.76198667 C-17.70699219 8.01664026 -17.70699219 8.01664026 -14.14221561 4.11200005 C-9.62141035 0.45863928 -5.67290646 -0.08239723 0 0 Z M22.08460999 43.50210571 C19.64652451 47.88383975 18.74714028 51.59294281 19.46742249 56.63491821 C22.53651121 64.52188894 27.95507304 69.64068009 33.92054749 75.47866821 C34.94703743 76.49768448 35.97263796 77.51759741 36.99739075 78.5383606 C39.67812248 81.20392473 42.37065014 83.85724831 45.06593323 86.50808716 C47.82166421 89.22267263 50.56590412 91.94882201 53.31117249 94.67398071 C58.68549465 100.00558894 64.07234858 105.32430093 69.46742249 110.63491821 C67.95955095 114.185554 65.90186129 116.42169845 63.15711975 119.10879517 C62.26602005 119.98683304 61.37492035 120.86487091 60.45681763 121.76951599 C59.98063555 122.2342161 59.50445347 122.69891621 59.01384163 123.17769814 C57.51613847 124.64047722 56.0257559 126.11035879 54.53723145 127.58247375 C50.30519045 131.76574273 46.06216999 135.93773876 41.80995178 140.10049438 C39.20549129 142.65115793 36.61104664 145.21166753 34.02236748 147.77834129 C33.03782784 148.75052535 32.04951695 149.71890644 31.05729866 150.68325233 C22.49644162 158.97683501 22.49644162 158.97683501 19.02992249 170.07241821 C19.74385613 175.88587787 21.79541215 180.08233719 26.09242249 184.07241821 C29.72959974 186.46529799 31.86029042 186.84445116 36.21742249 186.94741821 C37.75656311 187.00349243 37.75656311 187.00349243 39.32679749 187.06069946 C45.20764136 186.26342088 49.19587786 182.1555604 53.21595764 178.03408813 C54.10352753 177.13022873 54.99109741 176.22636932 55.90556335 175.29512024 C56.60242186 174.57860574 56.60242186 174.57860574 57.31335831 173.8476162 C58.77923676 172.34201871 60.25277061 170.84431593 61.72874451 169.34861755 C65.92051994 165.09903869 70.10202808 160.83955746 74.2691803 156.56582642 C76.82660559 153.94409419 79.39597422 151.33458779 81.97335434 148.73247719 C82.95167113 147.73988471 83.92528805 146.74263733 84.8940773 145.74074364 C86.24376833 144.34552852 87.61034573 142.96670812 88.97767639 141.58877563 C89.75011688 140.79919968 90.52255737 140.00962372 91.31840515 139.19612122 C93.46742249 137.63491821 93.46742249 137.63491821 95.45970154 137.61877441 C98.17724403 138.9941717 99.94240776 140.76697521 102.08070374 142.93936157 C103.44231628 144.31099709 103.44231628 144.31099709 104.83143616 145.71034241 C105.81427208 146.71514193 106.79710068 147.71994862 107.77992249 148.72476196 C108.79515016 149.75066932 109.81119443 150.77576918 110.82801819 151.8000946 C113.50261558 154.49747105 116.16895465 157.20284627 118.83277893 159.91085815 C123.09488736 164.24314766 127.36441674 168.56800388 131.64329529 172.88372993 C133.13451643 174.3916277 134.61913868 175.90581144 136.10340881 177.42054749 C137.46502136 178.79691124 137.46502136 178.79691124 138.85414124 180.20108032 C139.65037903 181.01080795 140.44661682 181.82053558 141.26698303 182.65480042 C146.09698899 187.0011962 150.22566796 187.07058497 156.55335999 186.94741821 C160.52366068 186.5216487 162.58220971 185.37587035 165.46742249 182.63491821 C169.52380603 177.26295082 171.02083503 173.38655126 170.46742249 166.63491821 C167.43833553 158.74067157 161.97044978 153.62003341 156.01429749 147.79116821 C154.98780754 146.77215195 153.96220701 145.75223902 152.93745422 144.73147583 C150.25672249 142.0659117 147.56419483 139.41258811 144.86891174 136.76174927 C142.11318076 134.0471638 139.36894085 131.32101441 136.62367249 128.59585571 C131.24935032 123.26424748 125.86249639 117.9455355 120.46742249 112.63491821 C121.97529402 109.08428242 124.03298368 106.84813797 126.77772522 104.16104126 C127.66882492 103.28300339 128.55992462 102.40496552 129.47802734 101.50032043 C129.95420942 101.03562033 130.4303915 100.57092022 130.92100334 100.09213829 C132.4187065 98.6293592 133.90908907 97.15947764 135.39761353 95.68736267 C139.62965452 91.5040937 143.87267498 87.33209766 148.12489319 83.16934204 C150.72935368 80.61867849 153.32379833 78.0581689 155.91247749 75.49149513 C156.89701713 74.51931108 157.88532802 73.55092998 158.87754631 72.58658409 C167.43840335 64.29300141 167.43840335 64.29300141 170.90492249 53.19741821 C170.24994581 47.86403671 168.71483024 43.77875879 164.77210999 40.01773071 C160.34106571 36.84244797 156.4465196 36.07747911 151.05726624 36.06851196 C142.38477805 37.96520998 136.69337956 45.01871305 130.72132874 51.08804321 C129.7006618 52.11431422 128.67932393 53.13991835 127.65734863 54.16488647 C124.98582117 56.84779889 122.32343166 59.53960019 119.66291809 62.23342896 C116.93985965 64.987326 114.20815359 67.73261617 111.47718811 70.47866821 C106.13215506 75.85575319 100.79675742 81.24226928 95.46742249 86.63491821 C89.63562647 81.80615784 84.33124495 76.58275927 79.02601624 71.18569946 C77.20794737 69.35012522 75.38957903 67.51484756 73.57093811 65.67984009 C70.72755434 62.80667915 67.88728467 59.93050844 65.05262756 57.04873657 C62.30187395 54.25298348 59.53901306 51.4693545 56.77601624 48.68569946 C55.51016945 47.39192131 55.51016945 47.39192131 54.21875 46.07200623 C49.01475078 40.84547504 44.37516199 36.23698693 36.59242249 36.13491821 C30.42485788 36.35784223 25.79742147 38.48876139 22.08460999 43.50210571 Z " fill="#030303" transform="translate(17.532577514648438,-0.634918212890625)"/>
<path d="M0 0 C0.83817123 -0.0034177 1.67634246 -0.0068354 2.53991282 -0.01035666 C5.34081244 -0.01693098 8.14074792 0.00503287 10.94155884 0.0269165 C12.95227028 0.02804508 14.96298337 0.02741093 16.97369385 0.02514648 C22.4278546 0.02399881 27.88166349 0.04751708 33.33574247 0.07544231 C39.0372257 0.10044686 44.73871699 0.10279723 50.44024658 0.10754395 C61.23491139 0.11997647 72.02941417 0.15280196 82.82400763 0.1929419 C95.11409564 0.23765088 107.40419138 0.25964448 119.69434047 0.27972364 C144.97426481 0.32153424 170.25404532 0.39189181 195.53384399 0.48101807 C195.53384399 0.81101807 195.53384399 1.14101807 195.53384399 1.48101807 C194.49832083 1.48248463 193.46279766 1.48395119 192.395895 1.48546219 C167.20789166 1.52204521 142.02002141 1.5814791 116.83212852 1.66492081 C104.65148063 1.7047426 92.47089764 1.73711916 80.29019165 1.75201416 C69.67439743 1.76501437 59.05874582 1.79193737 48.44303191 1.83563113 C42.82124604 1.85828254 37.19963631 1.87392654 31.57780075 1.87290192 C26.28689746 1.87215749 20.9963841 1.89002115 15.70558167 1.9221859 C13.76337588 1.93070803 11.82112648 1.93241919 9.87891006 1.92682076 C7.22684051 1.92019416 4.57601641 1.9380689 1.92407227 1.96203613 C0.77133051 1.95039551 0.77133051 1.95039551 -0.40469897 1.93851972 C-5.56068173 2.02100185 -8.50897208 3.20179483 -12.46615601 6.48101807 C-13.45615601 7.96601807 -13.45615601 7.96601807 -14.46615601 9.48101807 C-15.12615601 9.48101807 -15.78615601 9.48101807 -16.46615601 9.48101807 C-15.52936375 6.10856593 -14.62308715 4.61247792 -11.90935326 2.3392067 C-7.81402359 0.12908208 -4.53163918 -0.06801673 0 0 Z " fill="#2A2A2A" transform="translate(17.466156005859375,-0.48101806640625)"/>
<path d="M0 0 C-0.53625 0.2475 -1.0725 0.495 -1.625 0.75 C-5.87358821 2.98609906 -9.31207517 4.96811275 -12 9 C-12.66 9 -13.32 9 -14 9 C-13.02552263 5.49188148 -12.07842969 4.06595224 -9.25 1.6875 C-5.78812732 -0.11001082 -3.83428028 -0.36516955 0 0 Z " fill="#F0F0F0" transform="translate(15,0)"/>
</svg>
